<svg width="68" height="68" viewBox="0 0 68 68" fill="none" xmlns="http://www.w3.org/2000/svg">
<g filter="url(#filter0_d_58_831)">
<path d="M64 32.198C64 40.889 59.7016 48.6405 52.9704 53.7375C47.801 57.655 41.1957 60 33.9991 60C33.5767 60 33.1563 59.9913 32.7339 59.9756C32.1314 59.9513 31.5495 59.9182 30.9564 59.8591C28.6326 59.6434 26.3876 59.1771 24.2534 58.4952C21.9202 57.7629 19.7128 56.7574 17.6837 55.5258C17.6199 55.4927 17.5673 55.451 17.5035 55.4179H17.4941C17.4228 55.3762 17.3496 55.3257 17.2783 55.277C16.5237 54.8195 15.8067 54.3289 15.1159 53.8053C8.33412 48.7153 4 40.922 4 32.198C4 19.9479 12.5519 9.5435 24.4242 5.84168C25.7532 5.42592 27.1159 5.09366 28.5162 4.86056C30.2938 4.55265 32.1239 4.39435 33.9991 4.39435C35.7766 4.39435 37.5073 4.53525 39.2041 4.81011C42.5791 5.35807 45.7644 6.43139 48.6532 7.92917C57.8076 12.6939 63.9981 21.7762 63.9981 32.198H64Z" fill="#648D63"/>
<path d="M16.4468 42.6355C21.3402 28.2996 14.3933 0.995228 37.3252 0.0158459C54.7386 -0.726954 49.3778 24.7787 48.4543 37.9178C48.4543 37.9178 43.7654 41.8527 33.9522 41.1638C24.1389 40.4767 16.4468 42.6355 16.4468 42.6355Z" fill="#603913"/>
<path d="M26.6522 35.7729C27.7315 34.7187 27.754 33.8524 30.3463 33.5654C39.7972 32.5112 40.991 31.7475 40.9685 34.2455C40.9516 36.7383 34.4551 41.6596 30.2749 40.3323C26.1004 39.0033 24.6644 37.7247 26.6522 35.7729Z" fill="#A380B7"/>
<path d="M35.8311 22.6599L40.6119 23.3262L38.6279 34.8231L45.4247 38.5179L30.2149 50.8968C30.2149 50.8968 26.9226 44.3455 24.7565 40.014C23.5251 37.5525 30.7687 33.5584 30.7687 33.5584L35.8292 22.6582L35.8311 22.6599Z" fill="#FDCBB2"/>
<path d="M40.1502 24.7718L33.3647 27.9726L31.8292 31.2813L39.8611 27.6769L40.1502 24.7718Z" fill="#EAB7A0"/>
<path d="M46.0461 21.1674C46.795 19.3234 46.6242 16.721 44.963 16.3383C44.4675 16.2235 43.8706 16.3157 43.2624 16.5471C39.2492 16.1296 45.2708 4.65184 35.3206 3.28453C29.7833 2.52259 23.1704 6.03828 23.5158 18.8503C23.6603 24.236 27.7598 28.3397 27.7598 28.3397C33.0005 29.326 38.3971 27.623 41.1807 24.203C43.0465 23.982 45.0944 23.5054 46.0442 21.1674H46.0461Z" fill="#FDCBB2"/>
<path d="M36.1239 15.5277C35.9812 14.9745 35.6415 14.4404 35.1196 14.0734C34.6072 13.7046 33.8958 13.5184 33.2013 13.6837C33.8395 13.3845 34.6598 13.4088 35.3486 13.715C36.0431 14.016 36.6194 14.5709 36.9667 15.2406L36.1239 15.5277Z" fill="#001848"/>
<path d="M35.7972 15.1351C35.8883 14.5328 35.566 13.9931 35.0773 13.9296C34.5887 13.8661 34.1187 14.3029 34.0276 14.9051C33.9365 15.5074 34.2588 16.0471 34.7474 16.1106C35.2361 16.1741 35.7061 15.7373 35.7972 15.1351Z" fill="black"/>
<path d="M24.5406 12.5965C25.1356 12.2138 25.8752 12.0085 26.5772 12.1338C27.2905 12.2503 27.8142 12.7617 28.0206 13.3062C27.6715 12.8139 27.0952 12.5112 26.5378 12.5478C25.9803 12.5721 25.4735 12.8574 25.1262 13.2245L24.5387 12.5947L24.5406 12.5965Z" fill="#001848"/>
<path d="M27.6512 14.0074C27.7836 13.4206 27.617 12.8918 27.2791 12.8263C26.9412 12.7608 26.56 13.1834 26.4276 13.7702C26.2952 14.3571 26.4618 14.8858 26.7997 14.9513C27.1376 15.0168 27.5188 14.5942 27.6512 14.0074Z" fill="black"/>
<path d="M30.5415 12.8261C28.2459 17.349 26.9432 17.3281 26.9432 17.3281C27.7598 18.8572 28.9798 20.3932 28.9798 20.3932L30.5415 12.8261Z" fill="#EAB7A0"/>
<path d="M38.8213 12.1077C38.8213 12.1077 36.7096 10.8239 34.4046 10.7282C32.0977 10.6325 31.5815 11.3527 31.5815 11.3527C31.5815 11.3527 31.9757 9.7575 33.9578 9.66182C37.0587 9.51396 38.8213 12.1077 38.8213 12.1077Z" fill="#603913"/>
<path d="M24.9404 10.8761C24.9404 10.8761 25.4904 10.0741 26.9939 10.4447C28.4468 10.8048 29.3909 11.5615 29.3909 11.5615C29.3909 11.5615 28.8316 10.4882 27.7053 9.83407C25.2539 8.40936 24.9404 10.8743 24.9404 10.8743V10.8761Z" fill="#603913"/>
<path d="M42.87 20.2089C42.5678 19.9375 42.4457 19.5287 42.457 19.1356C42.4608 18.7355 42.6241 18.3493 42.8474 18.0205C43.0802 17.6917 43.3937 17.4377 43.7334 17.2394C44.0788 17.0498 44.4579 16.9246 44.869 16.8967C44.6457 17.2238 44.411 17.4812 44.1877 17.7335C43.9831 17.9979 43.7559 18.224 43.5964 18.4797C43.2416 18.9755 42.9863 19.4661 42.8681 20.2106L42.87 20.2089Z" fill="#CA807A"/>
<path d="M31.4838 21.2491C31.5289 21.5571 30.7124 21.9171 29.6574 22.0511C28.6025 22.1868 27.7109 22.0459 27.6659 21.738L31.4838 21.2491Z" fill="#CA807A"/>
<path d="M26.748 45.1561L24.2534 58.497C21.8489 57.7403 19.5871 56.7 17.5054 55.4197C17.496 55.444 17.5054 55.4701 17.5054 55.4945C17.496 55.4701 17.496 55.444 17.496 55.4197C16.6701 54.9204 15.8799 54.3794 15.1178 53.8071L15.7635 44.2516C15.8254 43.3122 16.1765 42.4215 16.7508 41.6648C16.9573 41.3987 17.1901 41.1499 17.451 40.9238L17.6762 40.7237C18.0272 40.4158 18.4214 40.1583 18.825 39.9583H18.8344C20.0995 39.3268 21.5617 39.2016 22.8907 39.5599C23.4294 39.7008 23.9493 39.9183 24.4261 40.2244C24.6682 40.3654 24.9029 40.541 25.1169 40.7324C25.2877 40.8733 25.4397 41.0403 25.5918 41.2073C26.3276 42.0301 26.7405 43.053 26.8025 44.102C26.8287 44.4516 26.8118 44.8082 26.748 45.1579V45.1561Z" fill="#FDCBB2"/>
<path d="M32.7339 59.9756C32.1313 59.9513 31.5495 59.9182 30.9563 59.8591C28.6325 59.6434 26.3876 59.1772 24.2534 58.4953C21.8489 57.7386 19.587 56.6983 17.5053 55.418C17.4866 55.3014 17.4791 55.1762 17.4697 55.0596C17.434 54.5116 17.4509 53.9532 17.541 53.3879C18.0253 50.3349 18.3669 46.6105 18.5734 43.7819C18.5922 43.4323 18.6184 43.1 18.6447 42.7834C18.6635 42.5503 18.6804 42.3259 18.6992 42.1189C18.7611 41.2282 18.7986 40.5132 18.8249 40.0557V40.014C18.8343 39.9896 18.8343 39.9722 18.8343 39.9566C18.8531 39.6574 18.8606 39.4991 18.8606 39.4991C20.7264 38.9668 22.9357 37.7699 25.2501 36.3557C25.6274 36.1226 26.0046 35.8894 26.3894 35.6494L26.4964 35.9399L26.6579 36.3974L27.7071 39.3495L28.3172 41.0543L28.4617 41.4457C28.533 41.637 28.6062 41.844 28.6776 42.0528L30.6241 47.5081C30.6241 47.5081 30.6785 47.6907 30.7686 48.0317C30.7949 48.1065 30.8137 48.1987 30.8399 48.2892C30.8587 48.3553 30.8756 48.4214 30.8944 48.4979C30.93 48.6232 30.9657 48.7554 31.0014 48.905C31.0821 49.2285 31.1722 49.6112 31.2698 50.0357C31.7466 52.0727 32.3378 55.084 32.518 58.0621C32.5537 58.6362 32.625 59.285 32.7339 59.9756Z" fill="#FDCBB2"/>
<path d="M52.9705 53.7375C47.801 57.655 41.1957 60 33.9991 60C33.5767 60 33.1563 59.9913 32.7339 59.9756C32.1314 59.9512 31.5495 59.9182 30.9564 59.859C30.9658 58.8118 30.992 57.7298 31.0559 56.6652C31.2529 53.3722 30.9395 51.9492 30.8588 50.3783C30.84 50.02 30.8325 49.6547 30.8494 49.2563C30.8588 49.0145 30.8757 48.7658 30.8944 48.4996C30.9132 48.3657 30.9301 48.2247 30.9489 48.0838C31.1741 46.3791 32.4561 43.9506 34.6016 41.1969C35.0859 40.581 35.6077 39.9583 36.1633 39.3181C37.2576 38.0795 38.4965 36.7905 39.878 35.5015C40.2009 35.1936 40.5331 34.8857 40.8653 34.5865C40.8653 34.5865 40.8747 34.6282 40.901 34.7117C41.0174 35.0614 41.4941 36.0599 43.3149 36.7574C43.6284 36.8827 43.9888 36.9906 44.3923 37.0897C45.1187 37.2724 46.7443 37.5211 48.3416 38.0134C50.0028 38.5214 51.6434 39.3025 52.2178 40.541C52.9986 45.8224 53.3215 50.2044 52.9723 53.7392L52.9705 53.7375Z" fill="#FDCBB2"/>
<path d="M18.9413 41.8197V41.837C18.9319 42.9347 18.9225 44.0498 18.8606 45.1631C18.7893 46.2782 18.6541 47.3759 18.5378 48.4822C18.4026 49.5886 18.2693 50.695 18.1079 51.8014C18.0272 52.3493 17.9371 52.899 17.847 53.44C17.7475 53.9723 17.6856 54.5047 17.695 55.0457V55.0631L17.6856 55.3953V55.4197C17.6856 55.4197 17.6856 55.4284 17.6762 55.444L17.6856 55.4771V55.5275C17.6218 55.4945 17.5692 55.4527 17.5054 55.4197H17.496C17.4247 55.3779 17.3515 55.3275 17.2801 55.2788L17.2445 55.0631C17.1637 54.5064 17.1375 53.9323 17.1994 53.367L17.3252 51.7039C17.4153 50.6063 17.5317 49.4999 17.648 48.4022L18.0704 45.1179C18.1961 44.0202 18.3313 42.9138 18.4927 41.8075C18.5378 41.4091 18.6091 41.0177 18.6635 40.635C18.7255 40.2523 18.7799 39.8539 18.8512 39.4625C18.8775 39.8539 18.9132 40.2523 18.9132 40.6524L18.9394 41.8249L18.9413 41.8197Z" fill="#FDCBB2"/>
<path d="M29.4829 44.6551C28.5463 41.5883 27.8311 38.9945 26.7086 39.0954C25.5824 39.1981 21.9109 41.9797 21.9109 41.9797L23.7072 37.5298L28.2647 34.0646C28.2647 34.0646 26.3464 35.6267 27.3712 37.2845C28.2478 38.7075 31.3299 45.5875 30.6899 49.6181L29.4829 44.6534V44.6551Z" fill="white"/>
<path d="M30.6898 49.6199C30.9826 44.3421 35.0802 39.2851 36.1089 38.2744C37.1337 37.2637 40.7921 34.3029 40.642 32.8748C41.7344 34.7709 43.4707 36.4513 43.4707 36.4513L40.824 41.7866C40.824 41.7866 38.6129 39.1877 37.3496 39.3008C36.0845 39.4156 33.7213 43.4357 32.8916 44.9561C32.0601 46.4765 30.6917 49.6217 30.6917 49.6217L30.6898 49.6199Z" fill="white"/>
</g>
<defs>
<filter id="filter0_d_58_831" x="0" y="-3.05176e-05" width="68" height="68" filterUnits="userSpaceOnUse" color-interpolation-filters="sRGB">
<feFlood flood-opacity="0" result="BackgroundImageFix"/>
<feColorMatrix in="SourceAlpha" type="matrix" values="0 0 0 0 0 0 0 0 0 0 0 0 0 0 0 0 0 0 127 0" result="hardAlpha"/>
<feOffset dy="4"/>
<feGaussianBlur stdDeviation="2"/>
<feComposite in2="hardAlpha" operator="out"/>
<feColorMatrix type="matrix" values="0 0 0 0 0 0 0 0 0 0 0 0 0 0 0 0 0 0 0.25 0"/>
<feBlend mode="normal" in2="BackgroundImageFix" result="effect1_dropShadow_58_831"/>
<feBlend mode="normal" in="SourceGraphic" in2="effect1_dropShadow_58_831" result="shape"/>
</filter>
</defs>
</svg>
