<svg width="39" height="46" viewBox="0 0 39 46" fill="none" xmlns="http://www.w3.org/2000/svg">
<path d="M39 25.8693C39 29.9705 37.8165 33.782 35.7741 36.9612C35.6106 37.2206 35.4361 37.4789 35.2543 37.7257C33.1948 40.6467 30.3838 42.9707 27.1225 44.3978C25.2496 45.2291 23.2206 45.7531 21.0965 45.9332C21.0672 45.9332 21.0379 45.9395 21.0086 45.9395C20.5133 45.9811 20.0057 46 19.4982 46C18.4538 46 17.4277 45.9156 16.4236 45.7468C15.8404 45.6561 15.262 45.5301 14.6971 45.3853C14.674 45.379 14.6508 45.3727 14.6325 45.3676C14.6215 45.3676 14.6154 45.3613 14.6093 45.3613C14.5336 45.3437 14.4629 45.3248 14.3933 45.3009C13.8858 45.1623 13.3904 44.9998 12.9061 44.8197C12.8072 44.7832 12.7084 44.7479 12.6084 44.7051C12.1533 44.53 11.7043 44.3373 11.2663 44.1207C11.2138 44.0967 11.1613 44.0728 11.1089 44.0426C10.7526 43.8738 10.4085 43.6874 10.0645 43.4946C10.0181 43.4707 9.97663 43.4405 9.93027 43.4165C8.116 42.3572 6.48231 41.0133 5.08897 39.4363C1.93139 35.859 0 31.0953 0 25.8693C0 17.3658 5.10361 10.098 12.3131 7.15308L12.3192 7.14678C14.5422 6.23736 16.9628 5.7373 19.4994 5.7373C21.3307 5.7373 23.1157 6.00182 24.7958 6.49558H24.808C26.0159 6.84448 27.1762 7.30801 28.273 7.88616C34.637 11.1976 39 18.0032 39 25.868V25.8693Z" fill="#134BB8"/>
<path d="M15.9941 16.619L22.4862 15.6945L23.4562 29.8673L14.6801 34.2444L14.8204 29.6973L15.9941 16.619Z" fill="#B58876"/>
<path opacity="0.16" d="M22.7656 19.783L15.5915 20.4216L24.2761 29.2916L22.7656 19.783Z" fill="#001848"/>
<path d="M22.7693 23.9093L15.5915 20.4215L12.2705 6.96532C11.5128 3.89445 13.4332 0.755561 16.4627 0.247948C34.5114 -2.77632 27.2189 22.85 27.2189 22.85C27.2189 22.85 28.1364 25.8906 22.7681 23.908L22.7693 23.9093Z" fill="#B58876"/>
<path d="M24.1662 12.1348L18.7356 12.2267C18.7356 12.2267 19.3139 10.8047 21.5308 10.787C23.7477 10.7694 24.1662 12.1361 24.1662 12.1361V12.1348Z" fill="#001848"/>
<path d="M28.5134 11.0932L25.6938 10.6951C25.6938 10.6951 26.2868 9.27937 27.4568 9.54011C28.6025 9.7958 28.5134 11.0932 28.5134 11.0932Z" fill="#001848"/>
<path d="M20.7 13.7949C20.8013 13.344 21.0795 12.9308 21.4528 12.6739C21.875 12.3842 22.3776 12.3451 22.8327 12.5819C22.9999 12.6688 23.1475 12.4094 22.9804 12.3225C22.4472 12.0441 21.8408 12.0617 21.3332 12.3968C20.8843 12.6928 20.5402 13.179 20.4182 13.7168C20.3755 13.9058 20.6573 13.9864 20.7 13.7974V13.7949Z" fill="#001848"/>
<path d="M22.3296 13.6369C22.355 13.1152 22.1082 12.6783 21.7784 12.6613C21.4487 12.6442 21.1608 13.0534 21.1354 13.5751C21.1101 14.0969 21.3569 14.5337 21.6867 14.5508C22.0164 14.5679 22.3043 14.1587 22.3296 13.6369Z" fill="#001848"/>
<path opacity="0.16" d="M25.2802 12.67C25.8646 15.101 26.765 15.8631 27.3384 17.0584C27.6776 17.7651 27.2311 18.546 26.5564 18.4377L24.276 17.3696L25.2802 12.6713V12.67Z" fill="#001848"/>
<path d="M26.5088 13.5077C26.571 13.1689 26.7992 12.8464 27.0725 12.6537C27.203 12.5617 27.3555 12.4887 27.508 12.4874C27.674 12.4874 27.8131 12.5743 27.9265 12.7066C28.051 12.8515 28.2572 12.6386 28.1327 12.4937C27.4507 11.7002 26.377 12.6235 26.2282 13.4283C26.2135 13.5077 26.2501 13.5908 26.3294 13.6135C26.4002 13.6337 26.4941 13.5883 26.5088 13.509V13.5077Z" fill="#001848"/>
<path d="M27.4474 13.5247C27.5109 13.1146 27.4091 12.7568 27.2202 12.7257C27.0312 12.6945 26.8265 13.0016 26.7631 13.4117C26.6996 13.8218 26.8013 14.1796 26.9903 14.2108C27.1792 14.2419 27.3839 13.9348 27.4474 13.5247Z" fill="#001848"/>
<path d="M23.9393 19.4832C24.1455 19.6445 24.3566 19.7667 24.5823 19.8334C24.808 19.8964 25.0398 19.9241 25.2741 19.909C25.5083 19.9002 25.7426 19.8498 25.972 19.7805C26.2001 19.7049 26.4222 19.6054 26.621 19.4366C26.5173 19.6873 26.2904 19.8687 26.0586 19.9946C25.8231 20.1256 25.5584 20.1924 25.2887 20.21C25.0203 20.2201 24.7421 20.1785 24.4993 20.0475C24.2565 19.9228 24.0515 19.7238 23.9393 19.4832Z" fill="#001848"/>
<path opacity="0.16" d="M16.5188 0.240564C13.4686 0.743138 11.5067 3.87321 12.2692 6.96297L13.7284 12.8742C13.8675 13.3617 13.9407 13.5493 14.8216 14.2459L17.2484 15.3405C16.3431 9.88143 16.0454 9.86002 16.1698 6.8874C17.0263 6.12031 18.1878 5.46407 19.9557 5.93767C25.329 7.3799 27.2933 5.78778 27.5886 5.50563C26.1269 1.75836 22.9291 -0.816229 16.5188 0.240564Z" fill="#001848"/>
<path d="M15.2573 16.174C16.1109 15.6088 15.998 13.8547 15.005 12.256C14.012 10.6574 12.515 9.81953 11.6613 10.3847C10.8076 10.9498 10.9206 12.7039 11.9136 14.3026C12.9065 15.9013 14.4036 16.7391 15.2573 16.174Z" fill="#B58876"/>
<path d="M16.9567 40.0687V40.1052C16.8103 41.2552 15.9416 43.1219 14.641 45.3149C14.6288 45.3325 14.6178 45.3451 14.6117 45.3627C14.5361 45.3451 14.4653 45.3262 14.3958 45.3023C13.8882 45.1637 13.3929 45.0012 12.9085 44.8211C12.8097 44.7846 12.7108 44.7493 12.6108 44.7065C12.1557 44.5314 11.7067 44.3387 11.2687 44.122C11.2162 44.0981 11.1638 44.0742 11.1113 44.0439C10.755 43.8752 10.411 43.6887 10.0669 43.496C10.0205 43.4721 9.97906 43.4419 9.9327 43.4179C8.11843 42.3586 6.48474 41.0146 5.0914 39.4376C7.35466 36.2156 9.04081 33.801 9.04081 33.801C9.31533 33.7405 9.59473 33.7053 9.87535 33.699C10.4988 33.6687 11.1296 33.7708 11.736 33.9698C11.8055 33.9874 11.8702 34.0113 11.9397 34.0416C12.3594 34.1864 12.7682 34.3791 13.1586 34.6134C13.6015 34.8666 14.0224 35.1613 14.4128 35.4989C14.4543 35.5291 14.4946 35.5657 14.5349 35.6009C14.9668 35.9738 15.3572 36.3844 15.6903 36.8114C16.559 37.9198 17.0665 39.124 16.9567 40.0687Z" fill="black"/>
<path d="M27.7948 35.3111C27.807 37.2685 27.5557 40.5321 27.1238 44.3978C25.2509 45.2291 23.2219 45.7531 21.0978 45.9332C21.0685 45.9332 21.0392 45.9395 21.0099 45.9395C20.5146 45.9811 20.007 46 19.4995 46C18.4551 46 17.429 45.9156 16.4248 45.7468C15.8416 45.6561 15.2633 45.5301 14.6984 45.3853C14.6752 45.4268 14.646 45.476 14.6167 45.5175C14.6228 45.4634 14.6289 45.4155 14.6338 45.3664C14.6228 45.3664 14.6167 45.3601 14.6106 45.3601C14.5349 45.3425 14.4642 45.3236 14.3946 45.2996C13.8871 45.1611 13.3917 44.9986 12.9073 44.8185C12.8085 44.7819 12.7097 44.7467 12.6096 44.7038C12.1545 44.5288 11.7056 44.336 11.2675 44.1194C11.2151 44.0955 11.1626 44.0715 11.1101 44.0413C10.7539 43.8725 10.4098 43.6861 10.0658 43.4934L9.5704 40.3734C9.5704 40.3734 10.638 36.7596 11.7348 33.9659C11.869 33.6346 11.9972 33.3159 12.1253 33.0149C12.1253 33.0149 12.1273 33.0107 12.1314 33.0023C12.2192 32.8096 12.301 32.6232 12.3827 32.4481L12.3888 32.4355C12.85 31.4417 13.2868 30.7678 13.6016 30.7615C13.6894 30.7615 13.7882 30.7552 13.8993 30.7489C14.103 30.7313 14.3422 30.7073 14.6045 30.6708C14.663 30.6645 14.7265 30.6532 14.7911 30.6469C14.9424 30.6229 15.101 30.599 15.2694 30.5751C15.4097 30.5511 15.5549 30.5272 15.7013 30.5033H15.7074C17.7547 30.1594 20.567 29.5636 22.4216 29.2261C22.5497 29.2021 22.6729 29.1845 22.7827 29.1593C23.0109 29.1228 23.2146 29.0925 23.4013 29.0636C23.5355 29.0459 23.6575 29.027 23.7624 29.022C23.8503 29.0094 23.9259 28.9981 23.9894 28.9981C24.054 28.9918 24.1114 28.9855 24.1651 28.9855H24.2297C25.1277 29.0522 25.5767 30.5751 26.3466 31.9241C26.6613 32.4783 27.0286 33.0023 27.502 33.3877C27.6826 33.5389 27.7765 34.1712 27.7875 35.1763C27.7936 35.2179 27.7936 35.267 27.7936 35.3086L27.7948 35.3111Z" fill="#D4D5D6"/>
<path d="M15.3181 30.8371C15.3181 30.8371 15.312 30.8434 15.312 30.8497C15.2889 31.0059 15.0839 32.3134 14.7703 34.204C14.7008 34.6373 14.619 35.1071 14.5373 35.6009C14.0761 38.3531 13.4758 41.8459 12.9097 44.8211C12.8109 44.7845 12.712 44.7493 12.612 44.7064C12.1569 44.5313 11.7079 44.3386 11.2699 44.122C11.2174 44.0981 11.165 44.0741 11.1125 44.0439C11.1711 43.7554 11.2357 43.472 11.2931 43.1949V43.1773C12.3021 38.4803 13.1013 35.7999 13.1366 34.9094C13.1427 34.825 13.1488 34.7293 13.1598 34.6146C13.2355 33.9647 13.4453 32.8865 13.6381 31.9884C13.7369 31.4883 13.837 31.0374 13.9004 30.754C13.9468 30.5436 13.9761 30.4227 13.9761 30.4227C14.2384 30.5374 14.4433 30.6217 14.6056 30.6759C14.6752 30.7061 14.7398 30.7238 14.7923 30.7364C14.8911 30.7729 14.9729 30.7905 15.0314 30.8031H15.0375C15.1888 30.8334 15.2474 30.8208 15.3059 30.8397C15.3059 30.8459 15.312 30.8397 15.3181 30.8397V30.8371Z" fill="url(#paint0_linear_58_717)"/>
<path d="M19.4653 31.5413C19.2432 31.6798 18.9455 31.9506 18.6137 32.2819C18.4441 32.4507 18.2696 32.6371 18.089 32.8298C17.091 33.9131 16.0295 35.2319 16.0295 35.2319C15.9307 35.5027 15.8197 36.0443 15.6916 36.8101C15.4122 38.5622 15.062 41.4529 14.7058 44.7115C14.6826 44.9105 14.6655 45.1083 14.6411 45.3136C14.6411 45.3312 14.635 45.3501 14.635 45.3677C14.624 45.3677 14.6179 45.3614 14.6118 45.3614C14.5362 45.3438 14.4654 45.3249 14.3959 45.301C13.8883 45.1624 13.3929 44.9999 12.9086 44.8198C12.8097 44.7833 12.7109 44.748 12.6109 44.7052C13.3283 40.8395 13.9871 37.4248 14.4129 35.4976C14.5069 35.0946 14.5825 34.7633 14.6521 34.4975C14.6753 34.4131 14.6984 34.3224 14.7216 34.2267C15.0071 33.0339 15.112 31.1319 15.3109 30.8485C15.3109 30.8485 15.313 30.8443 15.317 30.8359C15.655 30.4265 19.4641 31.54 19.4641 31.54L19.4653 31.5413Z" fill="url(#paint1_linear_58_717)"/>
<path d="M14.3031 29.211C14.3031 29.211 14.2445 29.3974 12.7512 31.4569C12.7158 31.5047 12.6755 31.5539 12.6401 31.608C12.4474 31.8725 12.279 32.3612 12.1326 33.0049C12.1326 33.0049 12.1305 33.0091 12.1265 33.0175C12.0862 33.1976 12.0508 33.4029 12.0094 33.6082V33.6208C11.9984 33.6989 11.9801 33.777 11.9691 33.8614V33.8677C11.9569 33.9219 11.9459 33.9823 11.9398 34.0428C11.5665 36.3919 11.3798 39.9326 11.2919 43.1786V43.1962C11.2797 43.5098 11.2749 43.8159 11.2688 44.1233C11.2163 44.0993 11.1638 44.0754 11.1114 44.0452C10.7551 43.8764 10.411 43.69 10.067 43.4972C10.0206 43.4733 9.97913 43.4431 9.93277 43.4192L8.48575 34.8023L9.97913 33.8866L9.8742 33.7002L9.46548 32.9898C9.46548 32.9898 12.2656 30.6054 14.0737 28.9125L14.0798 28.9062C14.1323 28.8583 14.1848 28.8092 14.2372 28.7614L14.3019 29.2135L14.3031 29.211Z" fill="#26282D"/>
<path d="M35.7741 36.9613C35.6106 37.2207 35.4362 37.4789 35.2544 37.7258C33.1949 40.6468 30.3838 42.9707 27.1225 44.3978C25.2497 45.2292 23.2207 45.7532 21.0965 45.9333C21.0672 45.9333 21.038 45.9396 21.0087 45.9396C20.5133 45.9811 20.0058 46 19.4982 46C18.4538 46 17.4277 45.9156 16.4236 45.7469C15.8404 45.6562 15.2621 45.5302 14.6972 45.3854C17.141 41.4164 20.1217 36.5028 21.0197 34.6902C21.9408 32.8411 22.7168 31.2339 23.3354 29.9265C23.3708 29.8484 23.4049 29.7753 23.4403 29.7035C23.5513 29.4692 23.6563 29.24 23.7612 29.0233C23.7905 28.9629 23.8136 28.9024 23.8429 28.8483C23.9369 28.643 24.0235 28.4515 24.1113 28.2701C24.7592 26.8732 25.0972 26.0961 25.0972 26.0961C25.645 26.5054 26.1647 26.8972 26.6601 27.2826C32.2713 31.6068 34.7334 34.3829 35.7717 36.96L35.7741 36.9613Z" fill="black"/>
<path d="M27.1945 28.1088L26.8565 31.9808L26.349 31.9266L23.3561 31.6193L24.8495 35.0214C24.8495 35.0214 20.3876 41.0851 16.426 45.7468C15.8428 45.6561 15.2645 45.5301 14.6996 45.3853C14.6764 45.4269 14.6471 45.476 14.6178 45.5175C14.6239 45.4634 14.63 45.4155 14.6349 45.3664C14.6239 45.3664 14.6178 45.3601 14.6117 45.3601C14.5361 45.3425 14.4653 45.3236 14.3958 45.2996C14.5007 45.1006 14.6056 44.9079 14.7045 44.7089C15.539 43.0828 16.2857 41.5171 16.9567 40.0661C18.2635 37.2484 19.2664 34.8451 20.0301 33.2908V33.2845C20.1058 33.1283 20.1814 32.9771 20.2522 32.8386C20.5609 32.2428 20.9342 31.5865 21.3429 30.9177C21.687 30.3521 22.0543 29.779 22.4227 29.2261C22.668 28.8532 22.9181 28.4854 23.1523 28.1365C23.2109 28.0521 23.2695 27.9677 23.3219 27.8896C23.5318 27.5886 23.7355 27.2989 23.9234 27.0344C24.1211 26.751 24.3078 26.4865 24.4712 26.2572C24.9727 25.5707 25.2936 25.1375 25.2936 25.1375L26.665 27.2813L27.1957 28.1063L27.1945 28.1088Z" fill="#26282D"/>
<path d="M14.5471 28.0055L12.634 31.6823L11.9044 33.9407C11.9044 33.9407 14.6654 30.5965 15.1474 30.798C15.6269 31.0046 14.5471 28.0043 14.5471 28.0043V28.0055Z" fill="white"/>
<path d="M24.5103 26.6213L22.0616 30.2288L19.4872 34.107C19.4872 34.107 15.7953 30.6293 15.317 30.8397C15.0266 30.9707 21.5443 26.0117 24.3029 24.7471L24.5115 26.6213H24.5103Z" fill="white"/>
<path d="M35.2556 37.7258C33.1961 40.6468 30.385 42.9707 27.1238 44.3978C25.2509 45.2291 23.2219 45.7531 21.0978 45.9333C21.0685 45.9333 21.0392 45.9395 21.0099 45.9395C23.9259 41.3383 26.8261 36.7206 27.7875 35.1789C28.0095 34.835 28.1255 34.6423 28.1255 34.6423C28.1547 34.636 28.1901 34.6247 28.2182 34.6184C30.8316 33.9495 33.7244 35.7142 35.2532 37.7258H35.2556Z" fill="black"/>
<path d="M21.0977 45.9346C21.6174 44.942 22.1762 43.9747 22.7399 43.0136C23.2999 42.0487 23.8892 41.1028 24.4785 40.1568C25.0752 39.2159 25.6754 38.2775 26.3001 37.3555L27.242 35.975L28.212 34.6147L28.2767 34.5341L28.2254 34.6235C27.7191 35.6249 27.1481 36.5821 26.5868 37.547C26.0232 38.5106 25.4351 39.4565 24.8433 40.4012C24.2443 41.3409 23.6452 42.2805 23.0169 43.2C22.3934 44.1233 21.7639 45.0415 21.0952 45.9333L21.0977 45.9346Z" fill="#353535"/>
<defs>
<linearGradient id="paint0_linear_58_717" x1="11.1125" y1="37.6213" x2="15.3181" y2="37.6213" gradientUnits="userSpaceOnUse">
<stop stop-color="#DB8E76"/>
<stop offset="0.48" stop-color="#CE5B4D"/>
<stop offset="1" stop-color="#C22926"/>
</linearGradient>
<linearGradient id="paint1_linear_58_717" x1="12.6109" y1="38.0571" x2="19.4653" y2="38.0571" gradientUnits="userSpaceOnUse">
<stop stop-color="#E16E56"/>
<stop offset="1" stop-color="#E85D2C"/>
</linearGradient>
</defs>
</svg>
