<svg width="39" height="46" viewBox="0 0 39 46" fill="none" xmlns="http://www.w3.org/2000/svg">
<path d="M33.4164 40.2786C33.2932 40.4016 33.1675 40.5235 33.0407 40.6442C32.9431 40.7362 32.8455 40.827 32.7467 40.9154C32.4197 41.2129 32.083 41.4985 31.7353 41.7733C31.29 42.1258 30.8276 42.4591 30.3506 42.7722C30.3274 42.7865 30.3055 42.8008 30.2823 42.8164C30.1115 42.9263 29.9395 43.035 29.765 43.139C29.5479 43.2716 29.327 43.3994 29.1038 43.5225C28.6756 43.7603 28.2364 43.9837 27.7874 44.1904C27.3128 44.4091 26.8285 44.6086 26.3344 44.789C26.2356 44.8249 26.1356 44.8607 26.0355 44.8954C25.883 44.9479 25.7293 44.9993 25.5744 45.0483C25.1901 45.1726 24.8009 45.2861 24.4056 45.3864C24.0213 45.4856 23.6321 45.5728 23.2381 45.6481C22.9294 45.7066 22.6183 45.758 22.3048 45.8022C22.1755 45.8213 22.0449 45.8381 21.9132 45.8536C21.5509 45.8978 21.1849 45.9325 20.8152 45.9564C20.3126 45.9898 19.8136 46.0053 19.3183 45.9982C19.1487 45.997 18.9803 45.9934 18.812 45.9862C18.8034 45.9862 18.7937 45.985 18.7851 45.985H18.762C18.6278 45.9791 18.4997 45.9731 18.3716 45.9683C17.7994 45.9396 17.2284 45.8823 16.6685 45.8022C14.6933 45.5214 12.8072 44.9455 11.0602 44.1211C9.79263 43.5237 8.60071 42.7949 7.49906 41.9525C7.35876 41.8498 7.21968 41.741 7.07939 41.6203C6.14488 40.8688 5.28357 40.0324 4.50766 39.1196C4.44544 39.0479 4.38444 38.9738 4.32588 38.9009C3.81471 38.2832 3.34257 37.6332 2.91436 36.9534C2.89728 36.9307 2.88508 36.908 2.8741 36.8853C1.26982 34.3379 0.266988 31.3843 0.0449508 28.1905C-0.451583 20.9834 3.20593 14.4358 9.01184 10.8047C9.34856 10.592 9.69381 10.3913 10.0452 10.2001C10.3184 10.052 10.5966 9.90858 10.8796 9.77237C11.0358 9.69709 11.1944 9.62301 11.3542 9.55133C11.3774 9.5346 11.4018 9.52265 11.425 9.51787C11.9727 9.27174 12.5388 9.0495 13.1159 8.86072C13.4331 8.75199 13.7539 8.65043 14.0784 8.55723C14.4457 8.45328 14.8165 8.35889 15.1935 8.27526C16.1536 8.06138 17.1455 7.918 18.1605 7.85109H18.163C18.1703 7.85109 18.1776 7.8499 18.1849 7.8499C19.8917 7.73878 21.5606 7.84153 23.1661 8.14502C23.1673 8.14382 23.1686 8.14502 23.1686 8.14502C23.3064 8.17011 23.4431 8.19759 23.5797 8.22627C24.1397 8.34097 24.6935 8.48315 25.2364 8.64923C25.5158 8.72929 25.7903 8.82009 26.0648 8.91807C26.5613 9.09012 27.053 9.28488 27.5337 9.49756C27.8472 9.63616 28.1571 9.78432 28.4621 9.93964C28.5255 9.97429 28.5963 10.0089 28.6597 10.0436C34.4046 13.0426 38.4818 18.7885 38.9552 25.6145C39.3443 31.272 37.1752 36.5232 33.4164 40.2786Z" fill="#648D63"/>
<path d="M33.0407 40.6443C32.9431 40.7363 32.8455 40.8271 32.7467 40.9155C32.4197 41.213 32.083 41.4986 31.7353 41.7734C31.29 42.1259 30.8276 42.4592 30.3506 42.7723C30.3274 42.7866 30.3055 42.8009 30.2823 42.8165C30.1115 42.9264 29.9395 43.0351 29.765 43.1391C29.5479 43.2717 29.327 43.3995 29.1038 43.5226C28.6756 43.7604 28.2364 43.9838 27.7874 44.1905C27.3128 44.4092 26.8285 44.6087 26.3344 44.7891C26.2356 44.825 26.1356 44.8608 26.0355 44.8955C25.883 44.948 25.7293 44.9994 25.5744 45.0484C25.1901 45.1727 24.8009 45.2862 24.4056 45.3865C24.0213 45.4857 23.6322 45.5729 23.2381 45.6482C22.6928 44.5872 22.3438 43.6887 22.2487 43.0244C22.1121 42.0625 22.6391 40.8235 23.5675 39.6825C23.9262 39.2404 24.3458 38.8138 24.8107 38.4231C24.8448 38.3944 24.8802 38.3658 24.9156 38.3371C25.3292 37.9989 25.7757 37.6895 26.2466 37.4254C26.748 37.1435 27.2762 36.9105 27.8191 36.7468C27.8875 36.7241 27.957 36.705 28.0265 36.6858C28.1229 36.6596 28.2193 36.6357 28.3169 36.6153C28.789 36.509 29.2697 36.4576 29.7504 36.4708C30.0456 36.4791 30.3409 36.5114 30.6349 36.5711C30.6349 36.5711 31.2937 37.4517 32.3502 38.8592C32.671 39.287 33.0285 39.7637 33.4164 40.2787C33.2932 40.4017 33.1676 40.5236 33.0407 40.6443Z" fill="black"/>
<path d="M21.3032 18.9463L14.0784 19.0084L15.2216 33.8266L25.4731 36.9786L24.6142 32.2961L21.3032 18.9463Z" fill="#FDCBB2"/>
<path d="M14.4078 23.2835L22.5354 23.9144L23.9213 29.5038L14.4078 23.2835Z" fill="#EAB7A0"/>
<path d="M24.9839 27.7188L14.4079 23.2836L8.03223 4.16284C34.7438 -7.36958 27.3714 24.9886 27.3714 24.9886C27.3714 24.9886 31.351 26.7701 24.9827 27.72L24.9839 27.7188Z" fill="#FDCBB2"/>
<path d="M14.0785 8.51796C14.0138 3.36589 22.339 4.53084 13.1281 2.73383C4.2832 1.00851 8.41285 10.26 9.72921 12.0176C12.8414 16.1708 11.0346 15.5328 13.1257 16.8949L15.8731 17.8639C14.4079 11.8898 14.126 12.2542 14.0785 8.51916V8.51796Z" fill="#0C0D0D"/>
<path d="M18.1874 7.85598C24.7607 9.08187 26.6016 6.80931 26.6016 6.80931C28.1803 3.67649 27.9839 -1.20436 20.4114 0.271246C15.2521 1.27729 8.16644 2.70151 9.14487 5.50098C13.1257 16.8924 11.9277 6.68864 18.1874 7.85598Z" fill="#0C0D0D"/>
<path d="M13.7386 18.875C14.6376 18.2244 14.3894 16.402 13.1842 14.8045C11.979 13.207 10.2732 12.4394 9.37415 13.09C8.47513 13.7405 8.72335 15.5629 9.92856 17.1604C11.1338 18.7579 12.8396 19.5255 13.7386 18.875Z" fill="#FDCBB2"/>
<path d="M9.90491 14.2961C10.9663 13.9771 11.9496 14.823 12.3766 15.7108C12.4339 15.8434 12.4937 15.9748 12.5474 16.1075C12.4693 15.9856 12.3986 15.8613 12.3241 15.7395C11.8203 14.9198 10.9517 14.1396 9.90491 14.2961Z" fill="#CA807A"/>
<path d="M23.3955 12.6843L17.4285 13.167C17.4285 13.167 17.9641 11.6412 20.4016 11.4643C22.8392 11.2875 23.3967 12.6831 23.3967 12.6831L23.3955 12.6843Z" fill="#001848"/>
<path d="M28.2913 13.0881L25.1608 12.8742C25.1608 12.8742 25.7123 11.3544 27.0189 11.5432C28.2974 11.7272 28.2913 13.0881 28.2913 13.0881Z" fill="#001848"/>
<path d="M19.4317 15.9796C19.5611 15.1862 20.2382 14.4108 21.086 14.3367C21.3569 14.3128 21.6277 14.3654 21.8766 14.4705C21.912 14.4861 21.9437 14.4347 21.9071 14.4191C21.4691 14.2339 20.9897 14.222 20.5529 14.4179C20.1491 14.5984 19.8197 14.9281 19.6074 15.3069C19.4927 15.5112 19.4098 15.7346 19.372 15.9652C19.3659 16.0023 19.4244 16.019 19.4305 15.9808L19.4317 15.9796Z" fill="#001848"/>
<path d="M21.9556 15.6566C22.0311 15.1153 21.8001 14.6373 21.4396 14.5891C21.0792 14.5408 20.7257 14.9406 20.6502 15.4819C20.5746 16.0233 20.8057 16.5012 21.1662 16.5495C21.5266 16.5977 21.8801 16.198 21.9556 15.6566Z" fill="#001848"/>
<path d="M23.8225 13.2507C25.8391 17.6512 27.8899 20.1472 27.8899 20.1472L26.3308 20.33L24.108 19.5474L23.8225 13.2507Z" fill="#EAB7A0"/>
<path d="M25.8038 15.2556C25.8416 14.9497 26.0124 14.657 26.221 14.4311C26.4296 14.2053 26.7029 14.0129 27.0164 14.0213C27.2116 14.0261 27.3812 14.1205 27.5166 14.2519C27.5447 14.2794 27.5874 14.2364 27.5593 14.2101C27.3117 13.9699 26.9823 13.8982 26.6602 14.0345C26.3381 14.1707 26.0819 14.4514 25.916 14.749C25.8282 14.9067 25.7635 15.0763 25.7415 15.2556C25.7367 15.2938 25.7977 15.2938 25.8025 15.2556H25.8038Z" fill="#001848"/>
<path d="M27.3771 15.2633C27.4712 14.839 27.3798 14.4594 27.1731 14.4154C26.9663 14.3715 26.7225 14.6798 26.6284 15.1041C26.5343 15.5284 26.6257 15.908 26.8324 15.952C27.0392 15.996 27.283 15.6876 27.3771 15.2633Z" fill="#001848"/>
<path d="M21.6546 21.2726C22.0609 22.1759 23.2381 22.4734 24.1434 22.1927C24.2764 22.1544 24.4008 22.0911 24.513 22.011C23.6188 22.6264 22.0718 22.3086 21.6546 21.2715V21.2726Z" fill="#CA807A"/>
<path fill-rule="evenodd" clip-rule="evenodd" d="M21.5182 21.3007V21.2714L21.7627 21.2258L21.7793 21.2186C21.7799 21.2199 21.7805 21.2211 21.781 21.2224L21.7814 21.2223C21.7825 21.225 21.7836 21.2277 21.7847 21.2304C22.1589 22.042 23.2434 22.3314 24.1022 22.0651L24.1036 22.0647L24.105 22.0643C24.1505 22.0512 24.1951 22.0346 24.2387 22.015C24.3072 21.9819 24.3727 21.9441 24.4347 21.9015L24.5932 22.1191C24.52 22.1713 24.4415 22.2174 24.3584 22.2554C23.9087 22.4725 23.365 22.5089 22.8725 22.3907C22.2958 22.2523 21.766 21.8957 21.5338 21.3355C21.5325 21.3325 21.5311 21.3295 21.5298 21.3265L21.5182 21.3007ZM21.6546 21.2714V21.2726C21.6561 21.276 21.6577 21.2795 21.6593 21.283C22.0295 22.1802 23.249 22.5329 24.1456 22.2002C24.1457 22.2002 24.1457 22.2002 24.1458 22.2002C24.1978 22.1808 24.2488 22.1592 24.2984 22.1352C24.3738 22.1011 24.4456 22.059 24.513 22.011C24.445 22.0578 24.3732 22.0992 24.2984 22.1352C24.2482 22.158 24.1965 22.1773 24.1433 22.1926C23.2416 22.4723 22.0699 22.1781 21.6593 21.283C21.6579 21.2795 21.6564 21.276 21.655 21.2726C21.655 21.2725 21.655 21.2724 21.655 21.2724C21.6548 21.272 21.6547 21.2717 21.6546 21.2714Z" fill="#CA807A"/>
<path d="M16.6685 45.8023C14.6933 45.5215 12.8072 44.9456 11.0602 44.1212C10.5991 39.7577 10.4893 36.6834 10.9455 36.3274C11.2981 36.0514 11.5946 35.7061 11.8544 35.3309C11.9459 35.1983 12.0326 35.0621 12.1167 34.9235C12.9768 33.4945 13.4404 31.842 14.4676 31.842C14.575 31.842 14.7202 31.8516 14.8959 31.8695C14.952 31.8755 15.0105 31.8826 15.0728 31.8898C15.3192 31.9185 15.6132 31.9603 15.9438 32.0117C15.9548 32.0129 15.967 32.0153 15.9792 32.0176C17.9434 32.3223 21.1776 32.9532 23.4968 33.3021C23.6578 33.326 23.8152 33.3499 23.9664 33.3702C24.2202 33.406 24.4593 33.4383 24.6814 33.4634C24.7326 33.4694 24.7826 33.4753 24.8314 33.4801C25.0522 33.5052 25.2523 33.5231 25.428 33.5351C25.5451 33.5422 25.6512 33.5458 25.7464 33.547C26.0087 33.5494 26.3247 33.8063 26.6821 34.283C26.7883 34.4228 26.8969 34.5817 27.0091 34.7598C27.3251 35.2616 27.6679 35.9104 28.0266 36.6858C28.6 37.9189 29.2148 39.4721 29.8395 41.2632C30.009 41.7495 30.1798 42.2525 30.3506 42.7722C30.3275 42.7866 30.3055 42.8009 30.2823 42.8165C30.1115 42.9264 29.9395 43.0351 29.765 43.1391C29.5479 43.2717 29.3271 43.3995 29.1038 43.5226C28.6756 43.7604 28.2364 43.9838 27.7874 44.1905C27.3129 44.4092 26.8285 44.6087 26.3344 44.7891C26.2356 44.8249 26.1356 44.8608 26.0355 44.8954C25.883 44.948 25.7293 44.9994 25.5744 45.0484C25.1901 45.1726 24.8009 45.2861 24.4056 45.3865C24.0213 45.4857 23.6322 45.5729 23.2381 45.6482C22.9295 45.7067 22.6184 45.7581 22.3048 45.8023C22.1755 45.8214 22.045 45.8382 21.9132 45.8537C21.5509 45.8979 21.1849 45.9325 20.8152 45.9564C20.3126 45.9899 19.8136 46.0054 19.3183 45.9983C19.1487 45.9971 18.9804 45.9935 18.812 45.9863C18.8035 45.9863 18.7937 45.9851 18.7852 45.9851H18.762C18.6278 45.9791 18.4997 45.9732 18.3716 45.9684C17.7994 45.9397 17.2285 45.8824 16.6685 45.8023Z" fill="#D4D5D6"/>
<path d="M32.3502 38.8593C32.4648 39.3671 32.599 40.0613 32.7467 40.9155C32.4197 41.2131 32.083 41.4986 31.7353 41.7734C31.29 42.1259 30.8276 42.4593 30.3506 42.7723C30.3274 42.7866 30.3055 42.801 30.2823 42.8165C30.1347 42.2836 29.9871 41.7651 29.8394 41.2632C29.3124 39.4674 28.7927 37.8903 28.3169 36.6154C27.8423 35.3429 27.4129 34.3739 27.0676 33.7932C27.0676 33.7932 28.5926 34.8889 30.0041 36.0383C30.8398 36.7193 31.6365 37.4183 32.0525 37.9201C32.1306 38.0145 32.2306 38.3371 32.3502 38.8593Z" fill="black"/>
<path d="M27.7874 44.1906C27.3128 44.4092 26.8285 44.6088 26.3344 44.7892C26.2356 44.825 26.1355 44.8609 26.0355 44.8955C25.5743 42.4796 25.1534 40.2501 24.8106 38.4232C24.6911 37.7875 24.5813 37.2009 24.4825 36.6728C24.1299 34.7861 23.9176 33.6355 23.9176 33.6355C23.92 33.6343 23.9237 33.6343 23.9261 33.6343C23.9932 33.6188 24.0518 33.6331 24.2263 33.5973C24.3287 33.5758 24.4715 33.5364 24.6813 33.4635C24.724 33.4479 24.7704 33.4324 24.8192 33.4133C24.9656 33.3595 25.1388 33.2914 25.345 33.2042C25.345 33.2042 25.3767 33.3273 25.4279 33.5352C25.4987 33.8243 25.6073 34.2771 25.7244 34.7849C25.9318 35.687 26.1624 36.766 26.2466 37.4255C26.2612 37.5426 26.271 37.6453 26.2758 37.7326C26.2941 38.0886 26.9175 40.679 27.7874 44.1906Z" fill="#648D63"/>
<path d="M25.5744 45.0484C25.1901 45.1727 24.8009 45.2862 24.4056 45.3866C24.1018 43.0471 23.8127 41.0314 23.5675 39.6825C23.4284 38.9118 23.3028 38.3586 23.1978 38.0886C23.1978 38.0886 22.0572 36.7659 20.9799 35.6798C20.9396 35.6392 20.8994 35.5986 20.8591 35.5591C20.3321 35.0334 19.8295 34.5794 19.5001 34.3846C19.5001 34.3846 23.5529 33.2233 23.9176 33.6355C24.1116 33.8517 24.236 35.4671 24.4886 36.6751C24.5398 36.9141 24.5947 37.1375 24.6569 37.3311C24.7314 37.5951 24.818 37.9344 24.9156 38.3371C25.2694 39.7924 25.7696 42.0888 26.3344 44.7891C26.2356 44.825 26.1356 44.8608 26.0355 44.8955C25.883 44.9481 25.7293 44.9994 25.5744 45.0484Z" fill="#648D63"/>
<path d="M31.7353 41.7734C31.29 42.1259 30.8276 42.4593 30.3506 42.7723C30.3274 42.7866 30.3055 42.801 30.2823 42.8165C30.1115 42.9264 29.9395 43.0352 29.765 43.1391C29.0745 40.6622 28.395 38.3825 27.8191 36.7468C27.5154 35.883 27.2409 35.1983 27.0091 34.7598C26.9261 34.6045 26.8492 34.479 26.7785 34.3882C26.7346 34.3321 26.6906 34.2759 26.6492 34.2222C25.0412 32.1647 24.9839 31.9795 24.9839 31.9795L25.0449 31.5207C25.1047 31.572 25.1644 31.6258 25.2254 31.6784C27.1689 33.3679 30.17 35.7551 30.17 35.7551L30.0041 36.0383L29.7504 36.4708L29.6345 36.6691L31.2327 37.5772L31.7353 41.7734Z" fill="#26282D"/>
<path d="M16.6685 45.8023C14.6933 45.5216 12.8073 44.9456 11.0602 44.1212C9.79267 43.5238 8.60074 42.795 7.49909 41.9526C7.3588 41.8499 7.21972 41.7411 7.07942 41.6205C6.14491 40.8689 5.2836 40.0325 4.50769 39.1197C4.59675 38.8353 4.68825 38.5677 4.78097 38.3168C5.0884 37.478 5.40438 36.8197 5.65936 36.3214C6.38647 34.8984 8.94356 33.4789 11.0541 31.6712C12.0155 30.8491 12.8841 29.947 13.4453 28.9267C13.4453 28.9267 13.9479 29.9913 14.8959 31.8695C14.9617 32.0009 15.0301 32.1372 15.102 32.2769C15.3753 32.8182 15.6828 33.418 16.0207 34.0716C16.5587 35.1123 17.176 36.2892 17.8678 37.582C18.8425 39.4029 20.4797 42.4186 21.9132 45.8537C21.5509 45.8979 21.1849 45.9326 20.8152 45.9565C20.3126 45.9899 19.8136 46.0055 19.3183 45.9983C19.1487 45.9971 18.9804 45.9935 18.812 45.9863C18.8035 45.9863 18.7937 45.9851 18.7852 45.9851H18.762C18.6278 45.9792 18.4997 45.9732 18.3716 45.9684C17.7994 45.9397 17.2285 45.8824 16.6685 45.8023Z" fill="black"/>
<path d="M18.4411 35.816C19.3817 37.5162 20.9457 41.5523 22.3048 45.8023C22.1755 45.8214 22.045 45.8381 21.9132 45.8536C21.5509 45.8979 21.1849 45.9325 20.8152 45.9564C20.3126 45.9899 19.8136 46.0054 19.3183 45.9982C19.1487 45.997 18.9803 45.9934 18.812 45.9863C16.1256 41.8785 13.5563 38.0574 13.5563 38.0574L13.7088 37.7193L15.1167 34.6032L12.1167 34.9234L11.3933 34.9999L11.0541 31.6711L10.9955 31.0904L12.9975 28.0687C12.9975 28.0687 13.4343 28.6112 14.0784 29.4511C14.3481 29.8024 14.6518 30.2039 14.9751 30.6388C15.2972 31.0713 15.6364 31.5361 15.9792 32.0176C16.2268 32.3653 16.4769 32.7214 16.7209 33.0786L16.749 33.1192C17.0869 33.6139 17.4151 34.1109 17.7164 34.5936C17.9812 35.0166 18.2264 35.4276 18.4411 35.816Z" fill="#26282D"/>
<path d="M24.7118 30.7632L26.7846 34.4647L27.5825 36.742C27.5825 36.742 24.6093 33.3846 24.097 33.5937C23.587 33.8064 24.713 30.7632 24.713 30.7632H24.7118Z" fill="white"/>
<path d="M14.0784 29.4523L16.7209 33.0798L19.5 36.9785C19.5 36.9785 23.4052 33.4275 23.9176 33.6366C24.2275 33.7668 17.237 28.8095 14.2846 27.5549L14.0784 29.4535V29.4523Z" fill="white"/>
<path d="M19.3183 45.9983C19.1487 45.9971 18.9803 45.9935 18.812 45.9864C18.8034 45.9864 18.7937 45.9852 18.7851 45.9852H18.762C18.6278 45.9792 18.4997 45.9732 18.3716 45.9684C17.7994 45.9398 17.2284 45.8824 16.6685 45.8024C14.6933 45.5216 12.8072 44.9457 11.0602 44.1212C9.79262 43.5238 8.6007 42.795 7.49905 41.9526C7.35875 41.8499 7.21967 41.7412 7.07937 41.6205C6.14486 40.8689 5.28356 40.0326 4.50764 39.1197C4.44543 39.048 4.38443 38.9739 4.32587 38.9011C4.46373 38.7051 4.61622 38.5092 4.78092 38.3168C6.4035 36.423 9.23265 34.8219 11.8544 35.3309C11.952 35.3489 12.0472 35.3704 12.1435 35.3943C12.1435 35.3943 12.7438 36.288 13.7088 37.7194C15.0715 39.741 17.1626 42.8356 19.3183 45.9983Z" fill="black"/>
</svg>
