<svg width="60" height="71" viewBox="0 0 60 71" fill="none" xmlns="http://www.w3.org/2000/svg">
<path d="M60 41.6859C60 50.7707 55.7729 58.8815 49.1506 64.2575C43.955 68.467 37.2783 71 30.0009 71C22.1136 71 14.9244 68.0176 9.56734 63.1515C3.67902 57.803 0 50.1654 0 41.6859C0 30.1011 6.88315 20.079 16.871 15.3266C17.9934 14.7837 19.1591 14.3178 20.3623 13.9234C21.6105 13.5034 22.8925 13.1696 24.2121 12.9146H24.2478C26.1136 12.5551 28.0357 12.3717 30.0009 12.3717C30.9432 12.3717 31.8761 12.4157 32.8015 12.5038C36.122 12.8009 39.2811 13.6263 42.1962 14.8974C42.2318 14.9157 42.2769 14.9322 42.3125 14.9414L42.4195 14.9946C52.7846 19.6076 60 29.8314 60 41.6877V41.6859Z" fill="#134BB8"/>
<path d="M49.1506 64.2574C43.9549 68.4669 37.2783 71 30.0009 71C22.1136 71 14.9244 68.0175 9.56734 63.1514C7.83482 56.6712 8.80525 47.4287 19.8329 45.9283C20.1839 45.8494 20.5425 45.7797 20.9104 45.7174C22.8663 45.3835 25.0924 45.2533 27.7034 45.323C29.6143 45.3762 31.4012 45.5596 33.0511 45.8494C40.4092 47.104 45.0587 50.3212 46.0009 52.7955C47.2398 56.0311 48.2797 59.9507 49.1506 64.2574Z" fill="black"/>
<path d="M32.4149 28.9125L23.3093 27.1774L20.8616 46.0678L32.9348 52.5957L33.0793 46.5025L32.4149 28.9125Z" fill="#FDCBB2"/>
<path d="M22.626 34.0703L32.6626 35.4587L32.9404 42.823L22.626 34.0703Z" fill="#EAB7A0"/>
<path d="M20.886 7.50371C23.0333 6.14823 25.374 5.17061 27.6171 4.09943C29.8639 3.0356 32.0319 1.88005 33.7175 0C33.1751 1.1317 32.3022 2.12217 31.2905 2.91087C30.2825 3.71425 29.1525 4.33605 28.0094 4.88814C25.6969 5.95931 23.3224 6.77553 20.886 7.50371Z" fill="#EAB541"/>
<path d="M25.5336 6.66188C26.6805 6.02358 27.8686 5.55586 29.0549 5.12849C30.2412 4.70113 31.4238 4.31228 32.5932 3.93076C33.7607 3.54375 34.9151 3.16774 36.0432 2.71836C37.1732 2.26714 38.2713 1.75357 39.4275 1.13177C38.8025 2.27265 37.8058 3.20258 36.7077 3.92342C35.604 4.64977 34.397 5.19452 33.1638 5.59438C31.9306 5.99974 30.6673 6.26753 29.3984 6.45095C28.1295 6.63437 26.8513 6.73158 25.5317 6.66372L25.5336 6.66188Z" fill="#EAB541"/>
<path d="M26.8288 4.26083C28.0976 3.90499 29.3647 3.72341 30.6204 3.57851C31.8762 3.43544 33.1206 3.32905 34.3482 3.22634C35.5758 3.11812 36.7884 3.01724 37.9935 2.83932C39.2004 2.65957 40.3905 2.41379 41.665 2.07446C40.7828 3.04109 39.5908 3.71424 38.3501 4.16362C37.1038 4.61483 35.7973 4.86795 34.504 4.9725C33.207 5.08255 31.9156 5.0532 30.6392 4.93948C29.3609 4.82576 28.0939 4.62767 26.8306 4.25716L26.8288 4.26083Z" fill="#EAB541"/>
<path d="M27.7222 5.39254C29.0249 5.17794 30.305 5.13575 31.5683 5.13025C32.8334 5.12475 34.0798 5.15593 35.313 5.18895C36.5443 5.21462 37.7607 5.24947 38.9789 5.20362C40.199 5.15776 41.4097 5.04404 42.7142 4.84412C41.7269 5.70802 40.4655 6.24728 39.1816 6.55726C37.8902 6.86907 36.565 6.97729 35.2661 6.94061C33.9653 6.90759 32.6851 6.73701 31.4294 6.48572C30.1717 6.2326 28.9366 5.89695 27.7222 5.39071V5.39254Z" fill="#EAB541"/>
<path d="M31.1966 8.04657C32.5068 7.89617 33.7888 7.91634 35.0521 7.97321C36.3153 8.03007 37.5598 8.12178 38.7893 8.21532C40.0188 8.30153 41.2313 8.39507 42.4496 8.40974C43.6696 8.42442 44.886 8.36939 46.1999 8.2355C45.1694 9.04988 43.8817 9.52677 42.5828 9.77255C41.2783 10.022 39.9474 10.0642 38.6523 9.96331C37.3552 9.86793 36.0845 9.63315 34.8437 9.32134C33.6011 9.00586 32.3848 8.61151 31.1985 8.04657H31.1966Z" fill="#EAB541"/>
<path d="M34.1511 39.7966L22.626 34.0721L19.5946 7.02498C56.2253 -0.750187 39.3318 38.6117 39.3318 38.6117C39.3318 38.6117 37.7644 40.8054 34.1511 39.7966Z" fill="#FDCBB2"/>
<path d="M24.5594 13.2887C19.741 8.66099 35.6397 7.65585 23.7992 5.42179C15.5627 3.86823 15.3938 12.1955 16.5913 14.7322C19.4182 20.7263 20.3923 22.0488 22.6655 24.2829L26.3482 24.4314C24.229 19.6222 26.2037 14.8661 24.5613 13.2868L24.5594 13.2887Z" fill="#EAB541"/>
<path d="M33.2032 12.4065C39.7598 10.8162 42.2638 15.0056 42.2638 15.0056C45.0718 11.4692 45.7663 3.29604 35.8536 3.25018C29.0981 3.219 20.5631 5.19443 20.6439 8.98389C20.7246 12.7733 25.2633 14.3342 33.2051 12.4065H33.2032Z" fill="#EAB541"/>
<path d="M22.9161 26.9269C24.2182 26.3357 24.3843 23.9857 23.287 21.678C22.1898 19.3702 20.2447 17.9786 18.9426 18.5698C17.6405 19.161 17.4744 21.511 18.5717 23.8187C19.6689 26.1265 21.614 27.518 22.9161 26.9269Z" fill="#FDCBB2"/>
<path d="M19.2943 20.2147C19.6678 20.0166 20.1296 20.0331 20.535 20.1688C20.9498 20.3009 21.3027 20.576 21.5768 20.8897C21.8489 21.2125 22.0198 21.5885 22.1249 21.9719C22.2187 22.357 22.2375 22.7551 22.1455 23.1513C21.8733 22.8358 21.6763 22.5331 21.4829 22.2415C21.2689 21.9645 21.1019 21.6784 20.8841 21.4454C20.4731 20.9539 20.0376 20.5559 19.2962 20.2147H19.2943Z" fill="#CA807A"/>
<path d="M36.4749 20.8218L28.7865 20.7925C28.7865 20.7925 29.6443 18.9032 32.7828 18.9399C35.9212 18.9784 36.4768 20.82 36.4768 20.82L36.4749 20.8218Z" fill="#EAB541"/>
<path d="M41.4979 20.1157C39.9212 19.6076 38.778 21.0603 38.778 21.0603L42.6279 22.0288C42.6279 22.0288 43.0408 20.6127 41.4979 20.1157Z" fill="#EAB541"/>
<path d="M31.0277 24.7012C31.0653 23.9437 31.4857 23.1604 32.1821 22.7936C32.4787 22.6377 32.8241 22.5827 33.1507 22.6762C33.588 22.8009 33.9071 23.1531 34.1436 23.5181C34.2975 23.7566 34.6861 23.5365 34.5303 23.2962C34.1005 22.6304 33.4228 22.0911 32.5744 22.2103C31.863 22.3094 31.2736 22.8395 30.9395 23.4374C30.7218 23.8263 30.6016 24.2573 30.5791 24.6993C30.566 24.9818 31.0146 24.98 31.0277 24.6993V24.7012Z" fill="#001848"/>
<path d="M33.3637 24.1925C33.392 23.4931 33.0362 22.9115 32.569 22.8935C32.1018 22.8755 31.7002 23.4279 31.672 24.1273C31.6437 24.8267 31.9995 25.4083 32.4667 25.4264C32.9339 25.4444 33.3355 24.892 33.3637 24.1925Z" fill="#3D937D"/>
<path d="M37.4078 22.2415C39.6771 26.4455 39.1197 32.104 39.1197 32.104L35.9662 30.1983L37.4078 22.2433V22.2415Z" fill="#EAB7A0"/>
<path d="M39.4594 25.3247C39.4707 25.0918 39.5289 24.8533 39.6359 24.6607C39.6621 24.613 39.6903 24.5672 39.7222 24.5232C39.7503 24.4828 39.7672 24.4626 39.8142 24.4131C39.8498 24.3764 39.8855 24.3434 39.9249 24.3086C39.9587 24.2792 39.9643 24.2755 40.0244 24.237C40.0657 24.2114 40.107 24.1875 40.1502 24.1673C40.1708 24.1563 40.1933 24.1472 40.214 24.138C40.1764 24.1545 40.2403 24.1288 40.2534 24.1251C40.2966 24.1105 40.3416 24.0976 40.3867 24.0885C40.4092 24.083 40.4317 24.0793 40.4542 24.0756C40.488 24.0701 40.4167 24.0793 40.4524 24.0756C40.4655 24.0756 40.4786 24.0738 40.4899 24.072C40.535 24.0683 40.5781 24.0683 40.6232 24.072C40.642 24.072 40.6926 24.0793 40.6476 24.072C40.672 24.0756 40.6964 24.0793 40.7208 24.0848C40.764 24.094 40.8053 24.1068 40.8447 24.1215C40.8503 24.1233 40.8841 24.1361 40.8447 24.1215C40.8559 24.127 40.8672 24.1306 40.8785 24.1361C40.901 24.1472 40.9235 24.1582 40.9442 24.171C40.9648 24.1838 40.9873 24.1967 41.008 24.2114C41.0099 24.2132 41.0361 24.2315 41.0155 24.2169C40.993 24.1985 41.0324 24.2315 41.038 24.2352C41.0774 24.27 41.115 24.3067 41.1469 24.3489C41.1225 24.3196 41.1656 24.3764 41.1732 24.3874C41.1901 24.4149 41.2069 24.4406 41.222 24.47C41.2557 24.5323 41.2576 24.5415 41.2839 24.6149C41.3721 24.8827 41.8057 24.7671 41.7175 24.4975C41.5523 24.0041 41.1412 23.6483 40.5988 23.6317C40.0751 23.6152 39.5927 23.9197 39.3149 24.3379C39.1197 24.6295 39.0314 24.9762 39.0164 25.3229C39.0033 25.6053 39.4519 25.6035 39.465 25.3229L39.4594 25.3247Z" fill="#001848"/>
<path d="M40.8184 25.1038C40.8391 24.5906 40.5872 24.1642 40.2557 24.1514C39.9242 24.1386 39.6387 24.5443 39.618 25.0575C39.5973 25.5707 39.8492 25.9971 40.1807 26.0098C40.5121 26.0226 40.7977 25.617 40.8184 25.1038Z" fill="#3D937D"/>
<path d="M32.2609 31.9041C33.3027 32.601 34.4552 33.1201 35.664 33.3879C36.2703 33.52 36.886 33.5622 37.4979 33.6135C38.1117 33.6741 38.7292 33.6759 39.3674 33.6612L39.3787 33.7034C38.7837 33.9657 38.1267 34.0336 37.481 34.0519C36.8297 34.0556 36.1896 33.9107 35.5739 33.7272C34.3351 33.3714 33.1995 32.7386 32.2346 31.9389L32.2609 31.9041Z" fill="#CA807A"/>
</svg>
